<mxfile host="app.diagrams.net" modified="2020-12-06T06:51:57.872Z" agent="5.0 (Windows NT 6.1; Win64; x64) AppleWebKit/537.36 (KHTML, like Gecko) Chrome/86.0.4240.198 Safari/537.36" etag="2acttKTvwUFa8963tMze" version="13.10.8" type="github">
  <diagram id="rMCbQnvQCRs3UhwqFYv3" name="Page-1">
    <mxGraphModel dx="868" dy="425" grid="1" gridSize="10" guides="1" tooltips="1" connect="1" arrows="1" fold="1" page="1" pageScale="1" pageWidth="827" pageHeight="1169" math="0" shadow="0">
      <root>
        <mxCell id="0" />
        <mxCell id="1" parent="0" />
        <mxCell id="J4EbdBOrUZjSkxNKsCpI-1" value="数据综合分析" style="rounded=1;whiteSpace=wrap;html=1;" vertex="1" parent="1">
          <mxGeometry x="230" y="210" width="120" height="60" as="geometry" />
        </mxCell>
        <mxCell id="J4EbdBOrUZjSkxNKsCpI-2" value="超站分析系统" style="rounded=1;whiteSpace=wrap;html=1;" vertex="1" parent="1">
          <mxGeometry x="50" y="210" width="120" height="60" as="geometry" />
        </mxCell>
        <mxCell id="J4EbdBOrUZjSkxNKsCpI-3" value="数据融合管理" style="rounded=1;whiteSpace=wrap;html=1;" vertex="1" parent="1">
          <mxGeometry x="410" y="210" width="120" height="60" as="geometry" />
        </mxCell>
        <mxCell id="J4EbdBOrUZjSkxNKsCpI-4" value="动态源清单" style="rounded=1;whiteSpace=wrap;html=1;" vertex="1" parent="1">
          <mxGeometry x="590" y="210" width="120" height="60" as="geometry" />
        </mxCell>
        <mxCell id="J4EbdBOrUZjSkxNKsCpI-5" value="一张图展示" style="rounded=1;whiteSpace=wrap;html=1;" vertex="1" parent="1">
          <mxGeometry x="230" y="320" width="120" height="60" as="geometry" />
        </mxCell>
        <mxCell id="J4EbdBOrUZjSkxNKsCpI-6" value="污染源分析" style="rounded=1;whiteSpace=wrap;html=1;" vertex="1" parent="1">
          <mxGeometry x="230" y="430" width="120" height="60" as="geometry" />
        </mxCell>
        <mxCell id="J4EbdBOrUZjSkxNKsCpI-7" value="质控与审核&lt;span style=&quot;color: rgba(0 , 0 , 0 , 0) ; font-family: monospace ; font-size: 0px&quot;&gt;%3CmxGraphModel%3E%3Croot%3E%3CmxCell%20id%3D%220%22%2F%3E%3CmxCell%20id%3D%221%22%20parent%3D%220%22%2F%3E%3CmxCell%20id%3D%222%22%20value%3D%22%E4%B8%80%E5%BC%A0%E5%9B%BE%E5%B1%95%E7%A4%BA%22%20style%3D%22rounded%3D1%3BwhiteSpace%3Dwrap%3Bhtml%3D1%3B%22%20vertex%3D%221%22%20parent%3D%221%22%3E%3CmxGeometry%20x%3D%22230%22%20y%3D%22320%22%20width%3D%22120%22%20height%3D%2260%22%20as%3D%22geometry%22%2F%3E%3C%2FmxCell%3E%3C%2Froot%3E%3C%2FmxGraphModel%3E&lt;/span&gt;" style="rounded=1;whiteSpace=wrap;html=1;" vertex="1" parent="1">
          <mxGeometry x="50" y="320" width="120" height="60" as="geometry" />
        </mxCell>
        <mxCell id="J4EbdBOrUZjSkxNKsCpI-8" value="颗粒物组分" style="rounded=1;whiteSpace=wrap;html=1;" vertex="1" parent="1">
          <mxGeometry x="50" y="430" width="120" height="60" as="geometry" />
        </mxCell>
        <mxCell id="J4EbdBOrUZjSkxNKsCpI-9" value="光化学组分" style="rounded=1;whiteSpace=wrap;html=1;" vertex="1" parent="1">
          <mxGeometry x="50" y="540" width="120" height="60" as="geometry" />
        </mxCell>
        <mxCell id="J4EbdBOrUZjSkxNKsCpI-10" value="基础源清单" style="rounded=1;whiteSpace=wrap;html=1;" vertex="1" parent="1">
          <mxGeometry x="414" y="320" width="120" height="60" as="geometry" />
        </mxCell>
        <mxCell id="J4EbdBOrUZjSkxNKsCpI-11" value="企业用电量" style="rounded=1;whiteSpace=wrap;html=1;" vertex="1" parent="1">
          <mxGeometry x="414" y="430" width="120" height="60" as="geometry" />
        </mxCell>
        <mxCell id="J4EbdBOrUZjSkxNKsCpI-12" value="企业在线监测" style="rounded=1;whiteSpace=wrap;html=1;" vertex="1" parent="1">
          <mxGeometry x="414" y="540" width="120" height="60" as="geometry" />
        </mxCell>
        <mxCell id="J4EbdBOrUZjSkxNKsCpI-13" value="船舶AIS监测" style="rounded=1;whiteSpace=wrap;html=1;" vertex="1" parent="1">
          <mxGeometry x="414" y="640" width="120" height="60" as="geometry" />
        </mxCell>
        <mxCell id="J4EbdBOrUZjSkxNKsCpI-14" value="机动车遥感监测" style="rounded=1;whiteSpace=wrap;html=1;" vertex="1" parent="1">
          <mxGeometry x="420" y="740" width="120" height="60" as="geometry" />
        </mxCell>
        <mxCell id="J4EbdBOrUZjSkxNKsCpI-15" value="排污许可证" style="rounded=1;whiteSpace=wrap;html=1;" vertex="1" parent="1">
          <mxGeometry x="414" y="850" width="120" height="60" as="geometry" />
        </mxCell>
        <mxCell id="J4EbdBOrUZjSkxNKsCpI-16" value="二污普数据" style="rounded=1;whiteSpace=wrap;html=1;" vertex="1" parent="1">
          <mxGeometry x="420" y="960" width="120" height="60" as="geometry" />
        </mxCell>
        <mxCell id="J4EbdBOrUZjSkxNKsCpI-17" value="动态测算系统" style="rounded=1;whiteSpace=wrap;html=1;" vertex="1" parent="1">
          <mxGeometry x="590" y="320" width="120" height="60" as="geometry" />
        </mxCell>
      </root>
    </mxGraphModel>
  </diagram>
</mxfile>
